<svg width="71" height="16" viewBox="0 0 71 16" fill="none" xmlns="http://www.w3.org/2000/svg">
<path d="M12.7666 5.5401C13.6448 6.19112 14.6345 6.87157 14.6896 7.99348C14.6268 9.28845 13.3448 9.97714 12.3859 10.7424C11.4065 11.5193 10.7975 12.779 9.58607 13.2911C8.54127 13.7278 7.55287 13.2475 6.82855 12.54C6.40806 12.128 6.04014 11.6465 5.63888 11.2368C5.23762 10.8271 4.75817 10.5045 4.29666 10.1514C3.47363 9.53097 2.58651 8.72808 2.80957 7.65561C3.0275 6.61375 4.13385 5.97686 4.95431 5.34586C5.8863 4.62538 6.47216 3.56351 7.47595 2.9172C8.37076 2.3427 9.39506 2.45219 10.2168 3.08084C11.1706 3.80955 11.7949 4.81492 12.7666 5.5401Z" fill="#224062"/>
<path d="M20.7362 4.25489H22.7171L24.8092 8.93118H24.8983L26.9904 4.25489H28.9713V11.215H27.4133V6.68479H27.3503L25.3842 11.181H24.3233L22.3573 6.6678H22.2942V11.215H20.7362V4.25489Z" fill="#224062"/>
<path d="M30.0585 4.25489H31.8576L33.5899 7.25234H33.6641L35.3964 4.25489H37.1956L34.4246 8.75446V11.215H32.8295V8.75446L30.0585 4.25489Z" fill="#224062"/>
<path d="M38.2818 11.215V4.25489H41.2791C41.8553 4.25489 42.3462 4.35571 42.7517 4.55735C43.1573 4.75673 43.4664 5.03427 43.6791 5.38998C43.8943 5.74342 44.0018 6.15123 44.0018 6.61343C44.0018 7.07562 43.893 7.48343 43.6754 7.83687C43.4578 8.19032 43.1425 8.46559 42.7295 8.6627C42.319 8.85981 41.8219 8.95837 41.2383 8.95837H39.3279V7.7791H40.9786C41.2877 7.7791 41.5424 7.73039 41.7427 7.63297C41.9455 7.53328 42.0964 7.39621 42.1953 7.22175C42.2967 7.04503 42.3474 6.84226 42.3474 6.61343C42.3474 6.38233 42.2967 6.18069 42.1953 6.0085C42.0964 5.83404 41.9455 5.69924 41.7427 5.60408C41.54 5.50666 41.2828 5.45795 40.9712 5.45795H39.888V11.215H38.2818Z" fill="#224062"/>
<path d="M52.2354 7.73492C52.2354 8.49391 52.0783 9.13962 51.7642 9.67205C51.4526 10.2045 51.0273 10.6112 50.4882 10.8921C49.9515 11.1708 49.3481 11.3101 48.6779 11.3101C48.0028 11.3101 47.3969 11.1696 46.8603 10.8887C46.3236 10.6078 45.8995 10.2011 45.5879 9.66865C45.2763 9.13622 45.1205 8.49165 45.1205 7.73492C45.1205 6.97593 45.2763 6.33022 45.5879 5.79779C45.8995 5.26537 46.3236 4.85981 46.8603 4.58114C47.3969 4.3002 48.0028 4.15973 48.6779 4.15973C49.3481 4.15973 49.9515 4.3002 50.4882 4.58114C51.0273 4.85981 51.4526 5.26537 51.7642 5.79779C52.0783 6.33022 52.2354 6.97593 52.2354 7.73492ZM50.6069 7.73492C50.6069 7.24328 50.5265 6.82866 50.3658 6.49108C50.2075 6.1535 49.9837 5.89748 49.6943 5.72303C49.405 5.54857 49.0662 5.46134 48.6779 5.46134C48.2897 5.46134 47.9509 5.54857 47.6615 5.72303C47.3722 5.89748 47.1471 6.1535 46.9864 6.49108C46.8281 6.82866 46.749 7.24328 46.749 7.73492C46.749 8.22657 46.8281 8.64118 46.9864 8.97876C47.1471 9.31634 47.3722 9.57236 47.6615 9.74682C47.9509 9.92127 48.2897 10.0085 48.6779 10.0085C49.0662 10.0085 49.405 9.92127 49.6943 9.74682C49.9837 9.57236 50.2075 9.31634 50.3658 8.97876C50.5265 8.64118 50.6069 8.22657 50.6069 7.73492Z" fill="#224062"/>
<path d="M57.7554 6.25659C57.7257 5.98244 57.5983 5.76947 57.3733 5.61767C57.1482 5.46587 56.8428 5.38998 56.457 5.38998C56.1949 5.38998 55.9736 5.42396 55.793 5.49193C55.6125 5.55763 55.474 5.64939 55.3776 5.76721C55.2836 5.88502 55.2366 6.01869 55.2366 6.16823C55.2317 6.29284 55.2601 6.40159 55.3219 6.49448C55.3862 6.58737 55.474 6.6678 55.5853 6.73577C55.6966 6.80147 55.8252 6.85925 55.9711 6.90909C56.117 6.95667 56.2728 6.99745 56.4385 7.03144L57.121 7.18097C57.4524 7.24894 57.7566 7.33957 58.0336 7.45285C58.3105 7.56613 58.5504 7.70547 58.7532 7.87086C58.956 8.03625 59.113 8.2311 59.2243 8.4554C59.3381 8.6797 59.3962 8.93685 59.3987 9.22685C59.3962 9.65279 59.2775 10.0221 59.0426 10.3348C58.8101 10.6451 58.4738 10.8864 58.0336 11.0586C57.5958 11.2285 57.0679 11.3135 56.4496 11.3135C55.8363 11.3135 55.3021 11.2274 54.8471 11.0552C54.3945 10.883 54.0409 10.6282 53.7862 10.2906C53.5339 9.95072 53.4016 9.53045 53.3893 9.02974H54.9436C54.9609 9.2631 55.0338 9.45794 55.1624 9.61427C55.2935 9.76834 55.4678 9.88502 55.6855 9.96432C55.9055 10.0413 56.1541 10.0799 56.4311 10.0799C56.7031 10.0799 56.9393 10.0436 57.1396 9.97111C57.3424 9.89861 57.4994 9.79779 57.6107 9.66865C57.722 9.53951 57.7776 9.39111 57.7776 9.22345C57.7776 9.06712 57.7269 8.93571 57.6255 8.82923C57.5266 8.72274 57.3807 8.63212 57.1878 8.55735C56.9974 8.48258 56.7637 8.41461 56.4867 8.35344L55.6595 8.16313C55.019 8.02039 54.5132 7.79723 54.1423 7.49363C53.7713 7.19003 53.5871 6.78108 53.5896 6.26678C53.5871 5.84537 53.7095 5.4772 53.9568 5.16228C54.2066 4.84735 54.5491 4.60153 54.9844 4.42481C55.4196 4.24809 55.9142 4.15973 56.4682 4.15973C57.032 4.15973 57.5241 4.24809 57.9445 4.42481C58.3674 4.60153 58.6963 4.84735 58.9313 5.16228C59.1662 5.4772 59.2874 5.84197 59.2948 6.25659H57.7554Z" fill="#224062"/>
<path d="M60.3986 5.46814V4.25489H66.638V5.46814H64.3122V11.215H62.7245V5.46814H60.3986Z" fill="#224062"/>
</svg>
